HIERARCHY
ROOT Hips
{
 OFFSET 0.000000 0.000000 0.000000
 CHANNELS 6 Xposition Yposition Zposition Yrotation Xrotation Zrotation
 JOINT Chest
 {
  OFFSET 0.000000 9.581000 -0.001100
  CHANNELS 3 Yrotation Xrotation Zrotation
  JOINT Chest2
  {
   OFFSET 0.000000 9.561100 0.002200
   CHANNELS 3 Yrotation Xrotation Zrotation
   JOINT Chest3
   {
    OFFSET 0.000000 9.521100 0.000000
    CHANNELS 3 Yrotation Xrotation Zrotation
    JOINT Chest4
    {
     OFFSET 0.000000 9.511400 0.000000
     CHANNELS 3 Yrotation Xrotation Zrotation
     JOINT Neck
     {
      OFFSET 0.000000 14.375100 0.000000
      CHANNELS 3 Yrotation Xrotation Zrotation
      JOINT Head
      {
       OFFSET 0.000000 8.901200 0.004600
       CHANNELS 3 Yrotation Xrotation Zrotation
       End Site
       {
        OFFSET 0.000000 16.962200 0.002400
       }
      }
     }
     JOINT RightCollar
     {
      OFFSET -2.920100 9.518800 0.000000
      CHANNELS 3 Yrotation Xrotation Zrotation
      JOINT RightShoulder
      {
       OFFSET -13.664500 0.000000 0.000000
       CHANNELS 3 Yrotation Xrotation Zrotation
       JOINT RightElbow
       {
        OFFSET 0.000000 -29.999200 0.000000
        CHANNELS 3 Yrotation Xrotation Zrotation
        JOINT RightWrist
        {
         OFFSET 0.000000 -24.253600 0.000000
         CHANNELS 3 Yrotation Xrotation Zrotation
         End Site
         {
          OFFSET 0.000000 -17.918900 0.000000
         }
        }
       }
      }
     }
     JOINT LeftCollar
     {
      OFFSET 2.920100 9.518800 0.000000
      CHANNELS 3 Yrotation Xrotation Zrotation
      JOINT LeftShoulder
      {
       OFFSET 13.664500 0.000000 0.000000
       CHANNELS 3 Yrotation Xrotation Zrotation
       JOINT LeftElbow
       {
        OFFSET 0.000000 -29.999200 0.000000
        CHANNELS 3 Yrotation Xrotation Zrotation
        JOINT LeftWrist
        {
         OFFSET 0.000000 -24.253600 0.000000
         CHANNELS 3 Yrotation Xrotation Zrotation
         End Site
         {
          OFFSET 0.000000 -17.918900 0.000000
         }
        }
       }
      }
     }
    }
   }
  }
 }
 JOINT RightHip
 {
  OFFSET -7.797300 0.005300 0.000500
  CHANNELS 3 Yrotation Xrotation Zrotation
  JOINT RightKnee
  {
   OFFSET 0.000000 -40.663400 -0.000500
   CHANNELS 3 Yrotation Xrotation Zrotation
   JOINT RightAnkle
   {
    OFFSET 0.000000 -39.523700 -0.000900
    CHANNELS 3 Yrotation Xrotation Zrotation
    JOINT RightToe
    {
     OFFSET 0.000000 -6.418000 14.485300
     CHANNELS 3 Yrotation Xrotation Zrotation
     End Site
     {
      OFFSET 0.000000 -1.465200 6.326400
     }
    }
   }
  }
 }
 JOINT LeftHip
 {
  OFFSET 7.797300 0.005300 0.000500
  CHANNELS 3 Yrotation Xrotation Zrotation
  JOINT LeftKnee
  {
   OFFSET 0.000000 -40.663400 -0.000500
   CHANNELS 3 Yrotation Xrotation Zrotation
   JOINT LeftAnkle
   {
    OFFSET 0.000000 -39.523700 -0.000900
    CHANNELS 3 Yrotation Xrotation Zrotation
    JOINT LeftToe
    {
     OFFSET 0.000000 -6.418000 14.485300
     CHANNELS 3 Yrotation Xrotation Zrotation
     End Site
     {
      OFFSET 0.000000 -1.465200 6.326400
     }
    }
   }
  }
 }
}
MOTION
Frames: 15
Frame Time: 0.008333
0.000000 86.422400 0.000000 0.000000 -5.767877 0.000000 0.000000 11.653817 0.000000 0.000000 -5.885947 0.000000 0.000000 -0.000000 0.000000 0.000000 -0.000000 0.000000 0.000000 12.528835 0.000000 0.000000 0.711642 0.000000 0.000000 -0.000000 0.000000 0.000000 0.000000 -90.000000 0.000000 -2.309062 0.000000 0.000000 2.309062 0.000000 0.000000 -0.000000 0.000000 0.000000 -0.000000 90.000000 0.000000 -2.309062 0.000000 0.000000 2.309062 0.000000 0.000000 8.520406 0.000000 0.000000 1.905762 0.000000 -0.000000 -4.658285 0.000000 0.000000 -0.000000 0.000000 0.000000 8.520406 0.000000 0.000000 1.905762 0.000000 -0.000000 -4.658285 0.000000 0.000000 -0.000000 0.000000
-13.533178 126.912633 28.211512 -160.337570 -49.033166 -3.002685 -2.848094 24.931607 -1.567331 -0.395480 3.949113 -0.156576 -0.638728 6.320594 -0.272550 -2.277821 20.665709 -1.178387 -2.958340 14.853037 -0.047193 -3.093369 -10.099954 0.631993 5.451798 0.717033 5.608699 -15.661594 -27.079749 -10.315763 -79.792089 -25.867717 131.802089 -36.635476 -2.681365 9.939241 -8.871218 -2.783191 -0.414886 -11.992833 -11.151271 13.535873 45.035580 -41.103422 -105.287323 -2.855403 8.207302 -22.505301 -6.565777 -23.921086 -10.541992 -18.229941 78.901646 -19.969368 6.048292 -16.374769 4.473077 0.003615 -0.000544 0.001601 3.466429 3.791940 -2.500919 130.242520 64.839050 148.856910 9.284410 11.895250 3.012569 0.000077 0.005668 0.000034
-13.533261 126.912160 28.211805 -160.347792 -49.025563 -2.998967 -2.839172 24.926686 -1.566196 -0.396344 3.947225 -0.156890 -0.636884 6.316329 -0.274407 -2.278609 20.661372 -1.183496 -2.459512 14.859029 0.007974 -2.579832 -10.106982 0.572576 5.433243 0.768689 5.629788 -15.654108 -27.040953 -10.293122 -79.852225 -25.925267 131.899191 -36.572423 -2.661798 9.958814 -8.868007 -2.763833 -0.413066 -11.996793 -11.164749 13.535536 45.023478 -41.084705 -105.286096 -2.886259 8.213145 -22.496963 -6.557885 -23.928476 -10.536103 -18.275669 78.904144 -20.011673 6.042481 -16.393837 4.472541 0.002277 -0.003410 0.001009 3.468932 3.787218 -2.498341 130.237947 64.841583 148.850824 9.308526 11.930403 2.933036 -0.003812 0.016013 -0.001690
-13.533610 126.911450 28.212534 -160.352602 -49.015898 -2.998192 -2.834558 24.917905 -1.563303 -0.394206 3.947679 -0.159960 -0.638755 6.312764 -0.272920 -2.270707 20.657668 -1.185854 -1.962057 14.876811 0.065971 -2.062622 -10.094510 0.513455 5.417218 0.797587 5.647909 -15.650434 -27.002627 -10.282849 -79.891212 -25.955268 131.968825 -36.495963 -2.649037 9.964442 -8.870511 -2.743861 -0.413360 -12.001478 -11.187189 13.539313 45.013457 -41.074934 -105.285125 -2.910107 8.218898 -22.487054 -6.555050 -23.936761 -10.534228 -18.318188 78.904170 -20.050481 6.054409 -16.408416 4.469874 0.003892 -0.003627 0.001724 3.470924 3.778619 -2.496623 130.237081 64.841850 148.851589 9.300903 11.925881 2.946560 -0.002805 0.013994 -0.001243
-13.532412 126.911449 28.212347 -160.360643 -49.012094 -3.006551 -2.827870 24.912207 -1.557905 -0.391797 3.935762 -0.161731 -0.636261 6.323387 -0.266228 -2.265092 20.630766 -1.183519 -1.457541 14.931899 0.123335 -1.544911 -10.059926 0.456815 5.408908 0.844333 5.661855 -15.647709 -26.960666 -10.273909 -79.953481 -26.017662 132.032802 -36.469390 -2.641695 9.970138 -8.863759 -2.704118 -0.420187 -12.014842 -11.201822 13.542684 45.014515 -41.075282 -105.287971 -2.916591 8.222844 -22.478685 -6.555141 -23.937277 -10.517227 -18.353371 78.901989 -20.081364 6.042667 -16.415727 4.470818 0.000787 -0.003814 0.000349 3.476792 3.774277 -2.483476 130.237651 64.844136 148.864205 9.292313 11.927608 2.941195 0.001811 0.011902 0.000803
-13.532514 126.911705 28.212461 -160.357083 -49.011206 -3.016527 -2.825704 24.897714 -1.553977 -0.392316 3.940688 -0.158598 -0.633775 6.300555 -0.267554 -2.265496 20.652215 -1.181185 -0.950698 14.978943 0.185190 -1.030919 -10.003831 0.405878 5.405486 0.875086 5.674156 -15.643085 -26.953664 -10.272783 -80.012165 -26.093823 132.040659 -36.478078 -2.628750 9.992600 -8.850576 -2.685667 -0.425546 -12.034973 -11.226559 13.556703 45.015076 -41.080977 -105.303828 -2.902681 8.222430 -22.459253 -6.559642 -23.936599 -10.512475 -18.355859 78.902515 -20.083430 6.056016 -16.415460 4.469559 0.002344 -0.003418 0.001038 3.475376 3.774647 -2.481319 130.237845 64.845629 148.869491 9.297074 11.924598 2.941696 0.000689 0.014032 0.000305
-13.532361 126.911573 28.213005 -160.353682 -49.008225 -3.027570 -2.824529 24.892501 -1.545086 -0.392190 3.939907 -0.158580 -0.632729 6.282549 -0.268117 -2.265290 20.661317 -1.180745 -0.447460 15.036390 0.252390 -0.524397 -9.931308 0.361194 5.403327 0.909542 5.687449 -15.637359 -26.906405 -10.260711 -80.074251 -26.153044 132.092640 -36.480060 -2.618238 10.008814 -8.842946 -2.669539 -0.429111 -12.049094 -11.242196 13.566315 45.016412 -41.078364 -105.305295 -2.938809 8.230195 -22.453658 -6.564834 -23.937482 -10.507191 -18.359031 78.901698 -20.083226 6.058758 -16.414209 4.468606 0.001151 -0.002877 0.000510 3.475475 3.774561 -2.479654 130.249319 64.841257 148.887370 9.264382 11.863308 3.053750 0.006445 0.002531 0.002856
-13.532853 126.910728 28.214477 -160.346877 -49.000790 -3.036124 -2.826434 24.872252 -1.543342 -0.391484 3.936433 -0.157971 -0.633257 6.276093 -0.267299 -2.260362 20.655667 -1.177065 0.042750 15.114370 0.320923 -0.028042 -9.848709 0.321786 5.398188 0.945719 5.692741 -15.632850 -26.845380 -10.248710 -80.127087 -26.192667 132.151300 -36.464312 -2.614126 10.010448 -8.838651 -2.637463 -0.435760 -12.063288 -11.255202 13.574334 45.027024 -41.080552 -105.311659 -2.941366 8.241344 -22.447867 -6.569369 -23.944418 -10.507290 -18.351486 78.901360 -20.068755 6.055835 -16.410134 4.464548 0.002084 -0.002560 0.000923 3.472232 3.770801 -2.481537 130.242565 64.836156 148.880455 9.211882 11.786514 3.220299 0.011129 -0.016966 0.004930
-13.533759 126.910536 28.215556 -160.344232 -48.999610 -3.040355 -2.828655 24.858698 -1.543592 -0.391032 3.932232 -0.157473 -0.631094 6.274648 -0.267694 -2.255437 20.616686 -1.173175 0.522932 15.220318 0.389932 0.454900 -9.760963 0.287770 5.393657 1.009186 5.701283 -15.628166 -26.825838 -10.246395 -80.149694 -26.213726 132.165302 -36.423347 -2.621207 9.992184 -8.805323 -2.571684 -0.445831 -12.102201 -11.267502 13.577615 45.042149 -41.092935 -105.324426 -2.938253 8.255072 -22.438776 -6.570898 -23.943896 -10.510595 -18.322344 78.900799 -20.036730 6.049159 -16.406316 4.467212 -0.000936 -0.001249 -0.000415 3.476918 3.773934 -2.488167 130.220197 64.828678 148.862187 9.192516 11.753323 3.289378 0.010018 -0.024668 0.004437
-13.534487 126.910344 28.216632 -160.342516 -48.999094 -3.045180 -2.827347 24.844459 -1.544313 -0.390257 3.927901 -0.156753 -0.630955 6.286834 -0.264423 -2.243553 20.578961 -1.173905 0.985750 15.311303 0.462834 0.921432 -9.670440 0.259390 5.384614 1.068211 5.723324 -15.622458 -26.817727 -10.249665 -80.169252 -26.238746 132.159726 -36.405146 -2.622510 9.984583 -8.797460 -2.523560 -0.449027 -12.123175 -11.287236 13.591438 45.045335 -41.082939 -105.326259 -2.934347 8.261959 -22.434356 -6.570202 -23.942074 -10.509642 -18.305502 78.900836 -20.017985 6.046164 -16.406551 4.470248 -0.001063 -0.000561 -0.000471 3.476388 3.778829 -2.490894 130.216096 64.826704 148.856281 9.180470 11.730817 3.337095 0.011439 -0.033603 0.005066
-13.535236 126.911151 28.216840 -160.351222 -49.007252 -3.043940 -2.804352 24.819868 -1.544501 -0.397802 3.939883 -0.149883 -0.628550 6.280397 -0.263702 -2.230161 20.570771 -1.173316 1.429667 15.392922 0.535458 1.369207 -9.578654 0.235404 5.369202 1.131665 5.754682 -15.601322 -26.805899 -10.256528 -80.194656 -26.259873 132.159909 -36.397239 -2.633361 9.971279 -8.793000 -2.482745 -0.447338 -12.141956 -11.307124 13.604317 45.038914 -41.066766 -105.323685 -2.946424 8.264157 -22.416100 -6.562772 -23.931289 -10.507472 -18.289758 78.901474 -19.999999 6.046934 -16.409411 4.471680 0.000106 -0.000283 0.000047 3.483876 3.789818 -2.490237 130.203776 64.829535 148.846557 9.235000 11.800153 3.181138 0.007239 -0.020469 0.003207
-13.535386 126.912540 28.216324 -160.358168 -49.020337 -3.048768 -2.788950 24.825194 -1.534624 -0.379042 3.906832 -0.158426 -0.622141 6.267576 -0.262299 -2.229176 20.590848 -1.162744 1.850770 15.471889 0.605681 1.795667 -9.487926 0.214098 5.347053 1.174591 5.775591 -15.582068 -26.757541 -10.248031 -80.192390 -26.255719 132.115408 -36.400792 -2.643233 9.931546 -8.797103 -2.442513 -0.443658 -12.151032 -11.325007 13.618538 45.043901 -41.059292 -105.337701 -2.950748 8.267953 -22.389067 -6.560241 -23.915843 -10.498440 -18.279335 78.902611 -19.989402 6.043846 -16.410893 4.472237 0.000013 -0.001103 0.000006 3.493093 3.804065 -2.481550 130.205101 64.835781 148.852475 9.321833 11.904683 2.940482 0.001189 0.002074 0.000527
-13.535208 126.914072 28.215566 -160.371979 -49.034826 -3.050439 -2.767581 24.831992 -1.521769 -0.373882 3.899434 -0.160259 -0.619126 6.263427 -0.261555 -2.212047 20.578317 -1.159868 2.249101 15.548484 0.672014 2.201129 -9.398404 0.194028 5.319051 1.237110 5.817151 -15.558968 -26.758880 -10.252909 -80.179356 -26.247410 132.092254 -36.403670 -2.655665 9.912220 -8.797288 -2.399815 -0.435965 -12.156351 -11.351350 13.626351 45.042247 -41.050147 -105.346081 -2.951694 8.276446 -22.377175 -6.550639 -23.895953 -10.487795 -18.266842 78.899410 -19.973539 6.046800 -16.413875 4.468147 0.001314 -0.000657 0.000582 3.506063 3.815803 -2.466980 130.216031 64.836146 148.861676 9.424012 12.024238 2.653828 -0.008757 0.033836 -0.003882
-13.535306 126.915034 28.215346 -160.372862 -49.044583 -3.058523 -2.734744 24.812838 -1.513410 -0.393996 3.924303 -0.149523 -0.604164 6.246046 -0.264553 -2.205991 20.578137 -1.154922 2.631879 15.618270 0.729702 2.586707 -9.308837 0.172789 5.298492 1.273500 5.841968 -15.547433 -26.754999 -10.249455 -80.148590 -26.230518 132.051072 -36.377915 -2.654756 9.921660 -8.784397 -2.365646 -0.428912 -12.138841 -11.394378 13.635210 45.051994 -41.046494 -105.375541 -2.921467 8.315498 -22.386675 -6.541657 -23.878017 -10.481967 -18.298549 78.894157 -19.994698 6.042920 -16.421800 4.465778 0.000438 0.000016 0.000194 3.510401 3.826196 -2.458045 130.226868 64.836729 148.874346 9.464053 12.066891 2.546510 -0.009564 0.042085 -0.004240
-13.535290 126.913867 28.216948 -160.355781 -49.037086 -3.076046 -2.726340 24.795537 -1.504626 -0.396246 3.918114 -0.150906 -0.591231 6.238186 -0.262563 -2.221460 20.596258 -1.148819 3.003286 15.675039 0.773484 2.949212 -9.219464 0.148534 5.294915 1.293899 5.860062 -15.539607 -26.754822 -10.244768 -80.118922 -26.216014 132.005000 -36.357489 -2.654284 9.931327 -8.764885 -2.351293 -0.427392 -12.145844 -11.413648 13.639277 45.049198 -41.044041 -105.383767 -2.931667 8.318436 -22.368145 -6.553156 -23.881616 -10.477181 -18.310920 78.896197 -20.006793 6.045894 -16.435661 4.462713 0.000781 -0.001069 0.000346 3.500096 3.825273 -2.460002 130.226404 64.832555 148.872733 9.408410 11.981119 2.737895 -0.001706 0.013454 -0.000756
